# xmcd
#
# Track frame offsets: 
#        150
#        16380
#        28553
#        39058
#        58130
#        75536
#        94460
#        113964
#        121367
#        138129
#
# Disc length: 2235 seconds
#
# Revision: 0
# Processed by: cddbd v1.5.2PL0 Copyright (c) Steve Scherf et al.
# Submitted via: ExactAudioCopyFreeDBPlugin 1.0
#
DISCID=7908b90a
DTITLE=The Cyborgs - Generation X
DYEAR=2018
DGENRE=Blues
TTITLE0=Bluesmem Hell
TTITLE1=Cyborgs Blues
TTITLE2=She Put Me Down
TTITLE3=Doncha Worry
TTITLE4=Feelin' Glad
TTITLE5=Hi Ho Gnikky Gnikky Boo Boo
TTITLE6=Cyborgs Day
TTITLE7=Cyborg's Wife
TTITLE8=Shake Your Mask
TTITLE9=Highway 01
EXTD=
EXTT0=
EXTT1=
EXTT2=
EXTT3=
EXTT4=
EXTT5=
EXTT6=
EXTT7=
EXTT8=
EXTT9=
PLAYORDER=
